<?xml version="1.0" encoding="UTF-8" standalone="no"?>
<svg
   xmlns:dc="http://purl.org/dc/elements/1.1/"
   xmlns:cc="http://creativecommons.org/ns#"
   xmlns:rdf="http://www.w3.org/1999/02/22-rdf-syntax-ns#"
   xmlns:svg="http://www.w3.org/2000/svg"
   xmlns="http://www.w3.org/2000/svg"
   xmlns:sodipodi="http://sodipodi.sourceforge.net/DTD/sodipodi-0.dtd"
   xmlns:inkscape="http://www.inkscape.org/namespaces/inkscape"
   width="24"
   height="24"
   viewBox="0 0 24 24"
   version="1.1"
   id="svg847"
   sodipodi:docname="search-blue.svg"
   inkscape:version="0.92.3 (2405546, 2018-03-11)">
  <metadata
     id="metadata853">
    <rdf:RDF>
      <cc:Work
         rdf:about="">
        <dc:format>image/svg+xml</dc:format>
        <dc:type
           rdf:resource="http://purl.org/dc/dcmitype/StillImage" />
      </cc:Work>
    </rdf:RDF>
  </metadata>
  <defs
     id="defs851" />
  <sodipodi:namedview
     pagecolor="#ffffff"
     bordercolor="#666666"
     borderopacity="1"
     objecttolerance="10"
     gridtolerance="10"
     guidetolerance="10"
     inkscape:pageopacity="0"
     inkscape:pageshadow="2"
     inkscape:window-width="1920"
     inkscape:window-height="1001"
     id="namedview849"
     showgrid="false"
     inkscape:zoom="9.8333333"
     inkscape:cx="12"
     inkscape:cy="12"
     inkscape:window-x="-9"
     inkscape:window-y="-9"
     inkscape:window-maximized="1"
     inkscape:current-layer="svg847" />
  <path
     d="M15.5 14h-.79l-.28-.27C15.41 12.59 16 11.11 16 9.5 16 5.91 13.09 3 9.5 3S3 5.91 3 9.5 5.91 16 9.5 16c1.61 0 3.09-.59 4.23-1.57l.27.28v.79l5 4.99L20.49 19l-4.99-5zm-6 0C7.01 14 5 11.99 5 9.5S7.01 5 9.5 5 14 7.01 14 9.5 11.99 14 9.5 14z"
     id="path843" />
  <path
     d="M0 0h24v24H0z"
     fill="none"
     id="path845" />
  <path
     style="fill:#0000ff;fill-opacity:0.99509804;stroke-width:0.10169491"
     d="m 16.519511,17.933086 c -2.421173,-2.422686 -2.465274,-2.474311 -2.465274,-2.885804 0,-0.698885 -0.187318,-0.739917 -0.988419,-0.216507 -1.33496,0.87221 -2.378383,1.153313 -3.9706993,1.069727 -1.6076916,-0.08439 -2.95761,-0.69363 -4.1322859,-1.864955 C 3.7964583,12.8725 3.1827124,11.494568 3.0961284,9.8445743 3.0142766,8.28476 3.3723181,7.0248722 4.2470259,5.7947598 5.4853268,4.0533217 7.3182075,3.0938273 9.4271186,3.0830339 c 1.1922464,-0.0061 1.9791604,0.1738928 2.9712384,0.6796258 1.286035,0.6555839 2.208129,1.601387 2.885189,2.9593742 0.721435,1.4469921 0.848291,2.9718934 0.380698,4.5762711 -0.242887,0.833384 -0.379552,1.12 -0.904333,1.896598 -0.368154,0.544812 -0.378948,0.58299 -0.208451,0.737288 0.10061,0.09105 0.355804,0.162724 0.579376,0.162724 0.386108,0 0.481726,0.08221 2.838615,2.440638 l 2.439048,2.440636 -0.711857,0.711856 -0.711856,0.711856 z M 11.487167,13.573961 C 13.255334,12.730092 14.301518,10.719244 13.972034,8.7978452 13.797233,7.778484 13.412216,7.0315068 12.68866,6.3079505 10.465835,4.0851254 6.7806612,4.7171061 5.3906624,7.5595044 5.0668021,8.2217639 5.0542373,8.2930348 5.0542373,9.4677966 c 0,1.1620754 0.015544,1.2531534 0.3255713,1.9076464 1.092949,2.307306 3.8214183,3.289496 6.1073584,2.198518 z"
     id="path5101"
     inkscape:connector-curvature="0" />
</svg>
